<svg xmlns="http://www.w3.org/2000/svg" viewBox="0 0 512 512">
  <defs>
    <linearGradient id="logo-grad" x1="0%" y1="0%" x2="100%" y2="100%">
      <stop offset="0%" style="stop-color:#6366f1;stop-opacity:1" />
      <stop offset="100%" style="stop-color:#a855f7;stop-opacity:1" />
    </linearGradient>
  </defs>
  <circle cx="256" cy="256" r="240" fill="url(#logo-grad)" />
  <path d="M361.3 301.7c4.6-31.1-19-47.8-51.3-59c36.2-8.3 63.6-31.9 59-75.1-5.7-53.7-46.6-82-93.5-82-14.7 0-29.4 0-44.1 0 0-21.3 0-42.6 0-63.9s0-42.6 0-63.9h-44.1c0 21.3 0 42.6 0 63.9v63.9h-29.4v44.1h29.4v132.3h-29.4v44.1h29.4v63.9v63.9h44.1v-63.9v-63.9h53.7c46.9 0 87.7-28.3 93.5-82h1.9c0 0.1 0 0.1 0.1 0.1h-0.1zM231.5 130.8h53.7c22.1 0 39.9 17.8 39.9 39.9 0 22.1-17.8 39.9-39.9 39.9h-53.7v-79.8zM231.5 258.1h53.7c22.1 0 39.9 17.8 39.9 39.9 0 22.1-17.8 39.9-39.9 39.9h-53.7v-79.8z" fill="#ffffff" />
</svg>
